<?xml version="1.0" standalone="no"?>
<!DOCTYPE svg PUBLIC "-//W3C//DTD SVG 20010904//EN"
 "http://www.w3.org/TR/2001/REC-SVG-20010904/DTD/svg10.dtd">
<svg version="1.0" xmlns="http://www.w3.org/2000/svg"
 width="300.000000pt" height="300.000000pt" viewBox="0 0 300.000000 300.000000"
 preserveAspectRatio="xMidYMid meet">
<metadata>
Created by potrace 1.10, written by Peter Selinger 2001-2011
</metadata>
<g transform="translate(0.000000,300.000000) scale(0.100000,-0.100000)"
fill="#000000" stroke="none">
<path d="M1260 2215 c-277 -55 -504 -245 -608 -508 -39 -97 -51 -165 -53 -292
-2 -140 17 -229 72 -352 82 -183 258 -349 447 -421 78 -30 234 -62 302 -62 58
0 209 29 270 51 258 96 437 283 520 544 28 88 39 284 20 377 -68 349 -328 606
-674 667 -79 14 -215 12 -296 -4z m366 -40 c221 -58 392 -195 494 -399 32 -63
40 -89 40 -133 0 -73 -24 -162 -60 -223 -17 -28 -30 -53 -30 -57 0 -3 -15 -24
-32 -46 -86 -109 -199 -190 -308 -221 -62 -17 -182 -27 -200 -16 -7 4 12 26
52 58 35 28 75 65 91 82 46 54 89 142 87 177 -3 43 -3 90 -1 193 7 268 -210
513 -495 561 -102 17 -106 21 -29 35 128 22 280 17 391 -11z m-291 -54 c90
-32 161 -79 244 -161 116 -115 170 -238 171 -387 0 -63 -11 -79 -29 -44 -20
36 -97 121 -138 150 -92 67 -101 69 -298 67 -170 -2 -183 -3 -242 -28 -137
-58 -258 -174 -317 -302 -32 -71 -56 -153 -55 -190 0 -22 5 -13 14 29 26 118
99 240 201 335 104 96 201 138 344 147 51 3 90 2 90 -3 0 -5 -19 -22 -42 -39
-70 -49 -105 -83 -141 -138 -47 -71 -72 -140 -59 -163 5 -11 6 -60 3 -114 -9
-128 2 -190 49 -285 89 -182 246 -296 458 -334 l97 -18 -66 -11 c-126 -23
-238 -25 -338 -8 -192 34 -344 123 -481 282 -44 53 -109 177 -121 233 -10 47
-13 52 -19 31 -5 -20 -9 -12 -19 40 -41 218 -18 389 77 580 28 57 59 97 132
170 52 52 109 102 125 110 17 8 41 22 55 31 79 52 192 59 305 20z m148 -417
c100 -51 212 -173 244 -266 13 -39 12 -44 -12 -94 -49 -99 -196 -232 -277
-249 -87 -20 -307 175 -333 295 -21 96 201 330 313 330 18 0 47 -7 65 -16z
m717 -116 c20 -119 16 -290 -9 -383 -40 -146 -110 -264 -219 -367 -132 -124
-275 -188 -378 -169 -74 15 -132 38 -204 81 -140 85 -244 212 -286 349 -14 48
-20 211 -6 211 4 0 19 -19 34 -43 36 -56 111 -126 178 -167 l55 -33 165 0
c183 -1 230 9 329 64 80 45 134 93 188 163 72 96 124 229 124 324 1 65 16 50
29 -30z"/>
</g>
</svg>
